<?xml version="1.0" encoding="utf-8"?>
<!-- Generator: Adobe Illustrator 20.0.0, SVG Export Plug-In . SVG Version: 6.00 Build 0)  -->
<svg version="1.1" id="Layer_1" xmlns="http://www.w3.org/2000/svg" xmlns:xlink="http://www.w3.org/1999/xlink" x="0px" y="0px"
	 viewBox="0 0 252.9 346.3" style="enable-background:new 0 0 252.9 346.3;" xml:space="preserve">
<style type="text/css">
	.st0{fill:#0096D7;}
	.st1{fill:#B3CC95;}
	.st2{clip-path:url(#SVGID_2_);fill:#B3CC95;}
	.st3{clip-path:url(#SVGID_4_);fill:#B3CC95;}
	.st4{clip-path:url(#SVGID_6_);fill:#B3CC95;}
	.st5{clip-path:url(#SVGID_8_);fill:url(#SVGID_9_);}
</style>
<polyline class="st0" points="35.1,280 45.5,280 16.8,300.1 46,324.7 35.3,324.7 11.2,303.9 8,306 8,324.7 0,324.7 0,280 8,280 
	8,299.4 35.1,280 "/>
<polyline class="st0" points="67.8,280 102.1,280 102.1,285.1 75.8,285.1 75.8,297.6 101.4,297.6 101.4,302.7 75.8,302.7 
	75.8,319.6 102.1,319.6 102.1,324.7 67.8,324.7 67.8,280 "/>
<polyline class="st0" points="139.8,295.2 139.6,295.2 132.1,324.7 123.9,324.7 137,278.2 158.9,313.3 180.9,278.2 193.9,324.7 
	185.7,324.7 178.2,295.2 178.1,295.2 158.9,325.6 139.8,295.2 "/>
<path class="st0" d="M226,324.7h-8V280h9.2c19.7,0,25.8,4.7,25.8,12.9c0,9.4-10.3,13-22.4,13H226V324.7 M226,301h2.5
	c8.1,0,16.9-1.1,16.9-8.2c0-7-9.5-7.8-17.4-7.8H226V301z"/>
<polyline class="st1" points="5.1,335.7 5,335.7 3.2,345.8 1.3,345.8 4.4,329.8 9.7,341.9 15,329.8 18.1,345.8 16.1,345.8 
	14.3,335.7 14.3,335.7 9.7,346.2 5.1,335.7 "/>
<path class="st1" d="M25,343.1l-1.2,2.7h-1.4l5.1-11.2l5.1,11.2h-1.4l-1.2-2.7H25 M27.4,337.6l-1.9,4.3h3.8L27.4,337.6z"/>
<g>
	<defs>
		<rect id="SVGID_1_" width="252.9" height="346.2"/>
	</defs>
	<clipPath id="SVGID_2_">
		<use xlink:href="#SVGID_1_"  style="overflow:visible;"/>
	</clipPath>
	<polyline class="st2" points="36.2,334.6 44.3,343 44.3,335.1 45.6,335.1 45.6,346.3 37.6,337.8 37.6,345.8 36.2,345.8 36.2,334.6 
			"/>
</g>
<path class="st1" d="M51.9,343.1l-1.2,2.7h-1.4l5.1-11.2l5.1,11.2h-1.4l-1.2-2.7H51.9 M54.4,337.6l-1.9,4.3h3.8L54.4,337.6z"/>
<path class="st1" d="M73.1,340.4v0.4c0,3-2.1,5.2-5.1,5.2s-5.4-2.6-5.4-5.6c0-3.1,2.5-5.6,5.6-5.6c1.7,0,3.3,0.8,4.4,2.1l-0.9,0.9
	c-0.8-1.1-2.1-1.8-3.4-1.8c-2.4,0-4.3,2-4.3,4.4c0,2.3,1.9,4.4,4.2,4.4c1.7,0,3.5-1.4,3.5-3.2h-2.8v-1.2H73.1"/>
<polyline class="st1" points="77.3,335.1 83,335.1 83,336.3 78.6,336.3 78.6,339.3 82.9,339.3 82.9,340.5 78.6,340.5 78.6,344.6 
	83,344.6 83,345.8 77.3,345.8 77.3,335.1 "/>
<polyline class="st1" points="89.4,338.7 89.4,338.7 88.1,345.8 86.7,345.8 88.9,334.6 92.6,343.1 96.3,334.6 98.5,345.8 
	97.1,345.8 95.9,338.7 95.8,338.7 92.6,346.1 89.4,338.7 "/>
<polyline class="st1" points="102.6,335.1 108.3,335.1 108.3,336.3 103.9,336.3 103.9,339.3 108.2,339.3 108.2,340.5 103.9,340.5 
	103.9,344.6 108.3,344.6 108.3,345.8 102.6,345.8 102.6,335.1 "/>
<g>
	<defs>
		<rect id="SVGID_3_" width="252.9" height="346.2"/>
	</defs>
	<clipPath id="SVGID_4_">
		<use xlink:href="#SVGID_3_"  style="overflow:visible;"/>
	</clipPath>
	<polyline class="st3" points="112.7,334.6 120.8,343 120.8,335.1 122.1,335.1 122.1,346.3 114.1,337.8 114.1,345.8 112.7,345.8 
		112.7,334.6 	"/>
</g>
<polyline class="st1" points="129.8,345.8 128.5,345.8 128.5,336.3 125.9,336.3 125.9,335.1 132.4,335.1 132.4,336.3 129.8,336.3 
	129.8,345.8 "/>
<path class="st1" d="M153.5,333.4c-0.6-1-1.3-1.4-2.5-1.4c-1.2,0-2.6,0.8-2.6,2.2c0,1.2,1.2,1.8,2.1,2.2l1.1,0.4
	c2.2,0.9,3.8,2.1,3.8,4.6c0,2.8-2.2,4.8-4.9,4.8c-2.5,0-4.4-1.8-4.8-4.3l1.9-0.4c0,1.7,1.3,2.9,3,2.9c1.7,0,2.8-1.4,2.8-3
	c0-1.7-1.3-2.4-2.7-2.9l-1.1-0.4c-1.8-0.8-3.3-1.8-3.3-3.9c0-2.5,2.2-4,4.5-4c1.7,0,3.1,0.8,4,2.3L153.5,333.4"/>
<path class="st1" d="M171.8,340.5c0,3.2-2.5,5.6-5.6,5.6c-3.1,0-5.6-2.4-5.6-5.6c0-3.1,2.6-5.6,5.6-5.6
	C169.2,334.9,171.8,337.4,171.8,340.5 M170.4,340.5c0-2.4-1.8-4.3-4.3-4.3c-2.5,0-4.3,2-4.3,4.3c0,2.5,2,4.4,4.3,4.4
	C168.5,344.8,170.4,342.9,170.4,340.5z"/>
<polyline class="st1" points="177.3,344.6 180.5,344.6 180.5,345.8 175.9,345.8 175.9,335.1 177.3,335.1 177.3,344.6 "/>
<path class="st1" d="M185.4,335.1v6.3c0,1.8,0.5,3.4,2.6,3.4s2.6-1.6,2.6-3.4v-6.3h1.3v6.8c0,2.4-1.5,4.2-3.9,4.2s-3.9-1.8-3.9-4.2
	v-6.8H185.4"/>
<polyline class="st1" points="199.6,345.8 198.2,345.8 198.2,336.3 195.7,336.3 195.7,335.1 202.1,335.1 202.1,336.3 199.6,336.3 
	199.6,345.8 "/>
<rect x="206" y="335.1" class="st1" width="1.3" height="10.8"/>
<path class="st1" d="M222.7,340.5c0,3.2-2.5,5.6-5.6,5.6c-3.1,0-5.6-2.4-5.6-5.6c0-3.1,2.6-5.6,5.6-5.6
	C220.2,334.9,222.7,337.4,222.7,340.5 M221.4,340.5c0-2.4-1.8-4.3-4.3-4.3c-2.5,0-4.3,2-4.3,4.3c0,2.5,2,4.4,4.3,4.4
	C219.4,344.8,221.4,342.9,221.4,340.5z"/>
<g>
	<defs>
		<rect id="SVGID_5_" width="252.9" height="346.2"/>
	</defs>
	<clipPath id="SVGID_6_">
		<use xlink:href="#SVGID_5_"  style="overflow:visible;"/>
	</clipPath>
	<polyline class="st4" points="226.8,334.6 234.8,343 234.8,335.1 236.2,335.1 236.2,346.3 228.1,337.8 228.1,345.8 226.8,345.8 
		226.8,334.6 	"/>
</g>
<path class="st1" d="M245.7,337.1c-0.4-0.7-0.9-1-1.7-1c-0.9,0-1.8,0.6-1.8,1.5c0,0.8,0.8,1.3,1.5,1.5l0.8,0.3
	c1.5,0.6,2.7,1.4,2.7,3.2c0,2-1.5,3.4-3.4,3.4c-1.7,0-3.1-1.3-3.3-3l1.4-0.3c0,1.2,0.9,2,2.1,2s2-1,2-2.1c0-1.2-0.9-1.7-1.9-2
	l-0.7-0.3c-1.2-0.5-2.3-1.2-2.3-2.7c0-1.7,1.5-2.8,3.2-2.8c1.2,0,2.2,0.6,2.8,1.6L245.7,337.1"/>
<g>
	<defs>
		<path id="SVGID_7_" d="M182.1,24.4l-2.2,6.6c-1.6,4.5-4.1,11.4-10.6,11.4c-6.1,0-9.2-6.3-9.2-11c0-6.3,2.9-12.3,7.3-17.1
			L145.2,4.1c-5.6,8.8-9.1,21-9.1,31c0,19.8,14.6,34.1,37.1,34.1c21.4,0,26.1-10.6,31.2-26.8c1.8-5.5,4.5-15.6,12.6-15.6
			c7.8,0,11.1,6.4,11.1,12.5c0,8.8-5.1,16.4-11.4,22.8l14.1,6.7L139,81.2v25.6l59,21.3l-59,20.1v55.5l45.6,31.1v0.3H139v25.7h110.4
			V235h-47.9v-0.3l47.9-33.2v-36.9l-63.6-8.3v-0.3l63.6-22.7v-10.2l-63.6-23.7v-0.3l63.6-7.2V66.2l-5.6,0.8
			c5.3-8.8,8.5-18.6,8.5-28.7c0-10-3.1-20.3-10.4-28.1C234.5,2.4,223.2,0,212.2,0C194.4,0,186.6,10.6,182.1,24.4 M191.3,211.1
			l-49.5-37.3l82.9,12.6L191.3,211.1z"/>
	</defs>
	<clipPath id="SVGID_8_">
		<use xlink:href="#SVGID_7_"  style="overflow:visible;"/>
	</clipPath>
	
		<linearGradient id="SVGID_9_" gradientUnits="userSpaceOnUse" x1="0" y1="346.271" x2="1" y2="346.271" gradientTransform="matrix(-116.29 0 0 116.29 252.37 -40137.5156)">
		<stop  offset="0" style="stop-color:#0096D7"/>
		<stop  offset="0.2418" style="stop-color:#39A7C2"/>
		<stop  offset="0.4944" style="stop-color:#6DB7AF"/>
		<stop  offset="0.7143" style="stop-color:#93C2A1"/>
		<stop  offset="0.8901" style="stop-color:#AAC998"/>
		<stop  offset="1" style="stop-color:#B3CC95"/>
	</linearGradient>
	<rect x="136.1" y="0" class="st5" width="116.3" height="260.7"/>
</g>
</svg>
